<svg xmlns="http://www.w3.org/2000/svg" width="32" height="32" viewBox="0 0 32 32" fill="none">
  <path d="M30.2222 25.8631C29.8516 25.0071 29.4258 24.0782 28.4444 24.0782H27.5556C28.5369 24.0782 29.3333 23.2791 29.3333 22.2933V7.1182C29.3338 6.88427 29.2882 6.65254 29.1991 6.43624C29.11 6.21994 28.9792 6.02331 28.8141 5.85757C28.649 5.69182 28.4529 5.56022 28.237 5.47027C28.021 5.38032 27.7895 5.33378 27.5556 5.33331H4.44444C3.46311 5.33331 2.66667 6.13242 2.66667 7.1182V22.2933C2.66667 23.2791 3.46311 24.0782 4.44444 24.0782H3.55556C2.57422 24.0782 2.07378 24.9706 1.77778 25.8631L0 30.2142C0 31.2009 0.796444 32 1.77778 32H30.2222C31.2036 32 32 31.2009 32 30.2151L30.2222 25.8631Z" fill="#CCD6DD"/>
  <path d="M0.0071106 30.2889L0.0124439 30.3395L0.163555 30.9547C0.303857 31.2655 0.530684 31.5293 0.816934 31.7147C1.10318 31.9001 1.43675 31.9991 1.77778 32H30.2222C30.6812 31.9985 31.1217 31.8195 31.4518 31.5006C31.7818 31.1817 31.9757 30.7475 31.9929 30.2889H0.0071106Z" fill="#9AAAB4"/>
  <path d="M27.5556 21.4C27.5556 21.8934 27.1582 22.2925 26.6667 22.2925H5.33333C4.84266 22.2925 4.44444 21.8934 4.44444 21.4V8.01158C4.44444 7.51825 4.84266 7.11914 5.33333 7.11914H26.6667C27.1582 7.11914 27.5556 7.51914 27.5556 8.01158V21.4Z" fill="white"/>
  <path d="M29.2498 27.5929L28.5742 25.6595C28.3618 25.2506 28.0098 24.9155 27.5182 24.9155H4.54222C4.05155 24.9155 3.73689 25.2782 3.51466 25.8364L2.90311 27.5937C2.70844 28.1235 3.30133 28.4862 3.792 28.4862H10.528C10.528 28.4862 11.3609 28.4444 11.5084 27.9457C11.6791 27.3697 11.8773 26.5022 11.92 26.3493C11.9858 26.1146 12.2649 25.8773 12.6809 25.8773H20.3058C20.7502 25.8773 20.9689 26.1022 21.0267 26.3804C21.064 26.5617 21.304 27.3946 21.416 27.9644C21.5147 28.472 22.5013 28.4853 22.5013 28.4853H28.3627C28.8524 28.4853 29.4444 28.0666 29.2498 27.5929Z" fill="#AEBBC1"/>
  <path d="M19.8889 29.4338H12.9724C12.6391 29.4338 12.4942 29.1289 12.5422 28.8338C12.5902 28.5396 12.8613 27.24 12.8827 27.0889C12.9031 26.9369 13.1262 26.7556 13.3484 26.7556H19.584C19.848 26.7556 20.0196 26.9004 20.0729 27.1902C20.1253 27.4809 20.3413 28.6489 20.3582 28.9156C20.3751 29.1831 20.208 29.4338 19.8889 29.4338Z" fill="#9AAAB4"/>
</svg>