<svg xmlns="http://www.w3.org/2000/svg" width="32" height="32" viewBox="0 0 32 32" fill="none">
  <path d="M0 8.88887C0 8.88887 0 5.33331 3.55556 5.33331H28.4444C28.4444 5.33331 32 5.33331 32 8.88887V24.8889C32 24.8889 32 28.4444 28.4444 28.4444H3.55556C3.55556 28.4444 0 28.4444 0 24.8889V8.88887Z" fill="#31373D"/>
  <path d="M18.6667 25.7778C23.5759 25.7778 27.5556 21.7981 27.5556 16.8889C27.5556 11.9797 23.5759 8 18.6667 8C13.7575 8 9.77778 11.9797 9.77778 16.8889C9.77778 21.7981 13.7575 25.7778 18.6667 25.7778Z" fill="#CCD6DD"/>
  <path d="M18.6667 24C22.594 24 25.7778 20.8162 25.7778 16.8889C25.7778 12.9615 22.594 9.77777 18.6667 9.77777C14.7393 9.77777 11.5556 12.9615 11.5556 16.8889C11.5556 20.8162 14.7393 24 18.6667 24Z" fill="#31373D"/>
  <path d="M18.6667 21.3333C21.1213 21.3333 23.1111 19.3435 23.1111 16.8889C23.1111 14.4343 21.1213 12.4445 18.6667 12.4445C16.2121 12.4445 14.2222 14.4343 14.2222 16.8889C14.2222 19.3435 16.2121 21.3333 18.6667 21.3333Z" fill="white"/>
  <path d="M28.8889 9.77775C29.6253 9.77775 30.2222 9.1808 30.2222 8.44442C30.2222 7.70804 29.6253 7.11108 28.8889 7.11108C28.1525 7.11108 27.5556 7.70804 27.5556 8.44442C27.5556 9.1808 28.1525 9.77775 28.8889 9.77775Z" fill="white"/>
  <path d="M14.2222 8L16.8889 2.66667L11.5556 4.44444L8 0L6.22222 4.44444L0.888889 3.55556L4.44444 8.88889L0 12.4444H5.33333L3.55556 17.7778L8.88889 15.1111L14.2222 19.5556L13.3333 12.4444L18.6667 11.5556L14.2222 8Z" fill="#CBCBCB"/>
  <path d="M8.88889 12.4444L6.22222 14.2222L7.11111 11.5555L4.44444 10.6667L7.11111 8.88888L4.44444 6.22221H8L8.88889 3.55554L10.6667 6.22221L13.3333 5.33332L11.5556 7.99999L14.2222 10.6667L11.5556 11.5555L12.4444 15.1111L8.88889 12.4444Z" fill="white"/>
</svg>