<svg xmlns="http://www.w3.org/2000/svg" width="32" height="32" viewBox="0 0 32 32" fill="none">
  <g clip-path="url(#clip0_1_342)">
    <path d="M6.22222 21.3333C7.96178 21.3333 9.45155 22.3422 10.1822 23.7973L13.2729 22.2516C11.9893 19.6071 9.28533 17.7778 6.14755 17.7778C5.02896 17.778 3.92325 18.0165 2.904 18.4773L4.38667 21.7396C4.9623 21.474 5.58831 21.3355 6.22222 21.3333ZM25.7778 21.3333C27.0818 21.3333 28.2418 21.9049 29.056 22.7982L31.6311 20.456C30.8899 19.6142 29.9778 18.94 28.9557 18.4782C27.9335 18.0164 26.8247 17.7776 25.7031 17.7778C22.5244 17.7778 19.7902 19.6542 18.5271 22.3556L21.7698 23.8862C22.4827 22.3822 24.0027 21.3333 25.7778 21.3333Z" fill="#575757"/>
    <path d="M6.22222 19.5556C5.40511 19.5556 4.596 19.7165 3.84108 20.0292C3.08617 20.3419 2.40023 20.8002 1.82245 21.378C1.24466 21.9558 0.786334 22.6417 0.473638 23.3966C0.160942 24.1516 0 24.9607 0 25.7778C0 26.5949 0.160942 27.404 0.473638 28.1589C0.786334 28.9138 1.24466 29.5998 1.82245 30.1776C2.40023 30.7553 3.08617 31.2137 3.84108 31.5264C4.596 31.8391 5.40511 32 6.22222 32C7.87246 32 9.4551 31.3444 10.622 30.1776C11.7889 29.0107 12.4444 27.428 12.4444 25.7778C12.4444 24.1275 11.7889 22.5449 10.622 21.378C9.4551 20.2111 7.87246 19.5556 6.22222 19.5556ZM6.22222 30.2222C5.04348 30.2222 3.91302 29.754 3.07953 28.9205C2.24603 28.087 1.77778 26.9565 1.77778 25.7778C1.77778 24.599 2.24603 23.4686 3.07953 22.6351C3.91302 21.8016 5.04348 21.3333 6.22222 21.3333C7.40096 21.3333 8.53142 21.8016 9.36492 22.6351C10.1984 23.4686 10.6667 24.599 10.6667 25.7778C10.6667 26.9565 10.1984 28.087 9.36492 28.9205C8.53142 29.754 7.40096 30.2222 6.22222 30.2222ZM25.7778 19.5556C24.1274 19.5557 22.5447 20.2114 21.3778 21.3784C20.2109 22.5455 19.5554 24.1283 19.5556 25.7787C19.5557 27.429 20.2114 29.0117 21.3784 30.1786C22.5455 31.3455 24.1283 32.001 25.7787 32.0009C26.5958 32.0008 27.405 31.8398 28.1599 31.527C28.9149 31.2143 29.6008 30.7559 30.1786 30.178C30.7564 29.6001 31.2147 28.9141 31.5274 28.1591C31.8401 27.4041 32.0009 26.595 32.0009 25.7778C32.0008 24.9606 31.8398 24.1514 31.527 23.3965C31.2143 22.6416 30.7559 21.9556 30.178 21.3778C29.6001 20.8 28.9141 20.3417 28.1591 20.0291C27.4041 19.7164 26.5949 19.5555 25.7778 19.5556ZM25.7778 30.2222C24.599 30.2222 23.4686 29.754 22.6351 28.9205C21.8016 28.087 21.3333 26.9565 21.3333 25.7778C21.3333 24.599 21.8016 23.4686 22.6351 22.6351C23.4686 21.8016 24.599 21.3333 25.7778 21.3333C26.9565 21.3333 28.087 21.8016 28.9205 22.6351C29.754 23.4686 30.2222 24.599 30.2222 25.7778C30.2222 26.9565 29.754 28.087 28.9205 28.9205C28.087 29.754 26.9565 30.2222 25.7778 30.2222Z" fill="#292F33"/>
    <path d="M26.6524 25.7084C26.6467 25.6487 26.6348 25.5897 26.6169 25.5324C26.6013 25.4754 26.5802 25.42 26.5538 25.3671C26.5422 25.3458 26.5404 25.3209 26.528 25.3004L20.3058 15.5227C20.2431 15.4241 20.1617 15.3389 20.066 15.2718C19.9704 15.2048 19.8625 15.1572 19.7485 15.1319C19.6345 15.1065 19.5167 15.1039 19.4017 15.1241C19.2866 15.1444 19.1767 15.1871 19.0782 15.2498C18.9541 15.3308 18.8526 15.4421 18.7834 15.5732C18.7142 15.7043 18.6795 15.8509 18.6827 15.9991H10.6667C10.4309 15.9991 10.2048 16.0928 10.0381 16.2595C9.87143 16.4262 9.77778 16.6523 9.77778 16.888C9.77778 17.1237 9.87143 17.3498 10.0381 17.5165C10.2048 17.6832 10.4309 17.7769 10.6667 17.7769H19.5556C19.5796 17.7769 19.6 17.7644 19.624 17.7627L24.1582 24.8889H16C15.7643 24.8889 15.5382 24.9825 15.3715 25.1492C15.2048 25.3159 15.1111 25.542 15.1111 25.7778C15.1111 26.0135 15.2048 26.2396 15.3715 26.4063C15.5382 26.573 15.7643 26.6667 16 26.6667H25.7787C25.9149 26.6637 26.0487 26.6296 26.1698 26.5671C26.1973 26.552 26.2284 26.5458 26.256 26.528C26.2827 26.5102 26.2987 26.4827 26.3227 26.464C26.4145 26.3924 26.4904 26.3025 26.5458 26.2C26.5724 26.1502 26.5947 26.1022 26.6124 26.0471C26.6305 25.989 26.6424 25.9291 26.648 25.8684C26.6516 25.8364 26.6667 25.8098 26.6667 25.7778C26.6667 25.7538 26.6542 25.7324 26.6524 25.7084Z" fill="#575757"/>
    <path d="M19.1831 14.2222L16.6062 21.4373L11.336 15.4151C11.2596 15.3258 11.1662 15.2525 11.0612 15.1996C10.9563 15.1466 10.8419 15.1149 10.7246 15.1065C10.6074 15.098 10.4896 15.1129 10.3782 15.1503C10.2667 15.1876 10.1638 15.2467 10.0753 15.3241C9.98682 15.4016 9.91459 15.4957 9.86277 15.6013C9.81096 15.7068 9.78059 15.8215 9.77342 15.9389C9.76625 16.0562 9.78243 16.1738 9.82102 16.2848C9.8596 16.3959 9.91983 16.4982 9.99822 16.5858L15.9218 23.3547L15.1627 25.4791C15.0835 25.7012 15.0957 25.9456 15.1967 26.1587C15.2977 26.3717 15.4793 26.5359 15.7013 26.6151C15.9234 26.6943 16.1679 26.6821 16.3809 26.581C16.5939 26.48 16.7581 26.2985 16.8373 26.0764L21.0711 14.2222H19.1831Z" fill="#575757"/>
    <path d="M6.22222 26.6667C6.07084 26.6664 5.92202 26.6275 5.78988 26.5537C5.65774 26.4798 5.54665 26.3734 5.46715 26.2446C5.38764 26.1158 5.34236 25.9688 5.33558 25.8175C5.32881 25.6663 5.36077 25.5159 5.42844 25.3804L8.15022 19.9529C8.16533 19.928 9.77778 17.4676 9.77778 15.1111C9.77778 12.2293 7.73955 11.5173 7.71911 11.5102C7.60696 11.4744 7.50303 11.4167 7.41336 11.3405C7.32369 11.2642 7.25006 11.1709 7.19675 11.0659C7.14344 10.961 7.11151 10.8465 7.10281 10.7291C7.09411 10.6117 7.10882 10.4937 7.14609 10.382C7.18335 10.2704 7.24242 10.1672 7.31987 10.0785C7.39733 9.9899 7.49162 9.91751 7.59728 9.8656C7.70293 9.81368 7.81785 9.78327 7.93535 9.77613C8.05286 9.76899 8.17061 9.78526 8.28178 9.824C8.41511 9.86844 11.5556 10.9627 11.5556 15.1111C11.5556 17.8382 9.92355 20.4818 9.66133 20.8862L7.01778 26.1742C6.94431 26.3223 6.83087 26.447 6.69028 26.534C6.54969 26.621 6.38756 26.667 6.22222 26.6667Z" fill="#575757"/>
    <path d="M12.9884 12.1449C12.9393 12.1451 12.8902 12.141 12.8418 12.1324L7.50844 11.2436C7.27588 11.2048 7.06824 11.0752 6.93121 10.8833C6.79419 10.6915 6.73899 10.453 6.77777 10.2204C6.81656 9.98788 6.94613 9.78025 7.138 9.64322C7.32987 9.50619 7.56832 9.451 7.80089 9.48978L13.1342 10.3787C13.3549 10.4146 13.554 10.5324 13.6917 10.7085C13.8294 10.8847 13.8957 11.1063 13.8773 11.3291C13.8589 11.552 13.7572 11.7597 13.5924 11.9109C13.4277 12.0621 13.212 12.1456 12.9884 12.1449ZM23.4516 15.1111C23.4251 15.1111 23.3987 15.1093 23.3724 15.1058L18.3307 14.4764C18.1667 14.4628 18.0145 14.3855 17.9068 14.261C17.7991 14.1366 17.7445 13.9749 17.7546 13.8106C17.7647 13.6463 17.8388 13.4926 17.9609 13.3822C18.0831 13.2719 18.2436 13.2138 18.408 13.2204C18.4444 13.2204 22.0231 13.2044 23.7316 12.0658C23.841 11.9933 23.9703 11.9566 24.1015 11.9607C24.2327 11.9649 24.3593 12.0097 24.464 12.0889C24.5679 12.169 24.6444 12.2795 24.6827 12.405C24.7211 12.5305 24.7195 12.6648 24.6782 12.7893L24.048 14.68C24.0068 14.8056 23.9269 14.9149 23.8197 14.9923C23.7126 15.0698 23.5837 15.1113 23.4516 15.1111Z" fill="#292F33"/>
    <path d="M17.7778 25.7778C17.7778 26.2493 17.5905 26.7015 17.2571 27.0349C16.9237 27.3683 16.4715 27.5556 16 27.5556C15.5285 27.5556 15.0763 27.3683 14.7429 27.0349C14.4095 26.7015 14.2222 26.2493 14.2222 25.7778C14.2222 25.3063 14.4095 24.8541 14.7429 24.5207C15.0763 24.1873 15.5285 24 16 24C16.4715 24 16.9237 24.1873 17.2571 24.5207C17.5905 24.8541 17.7778 25.3063 17.7778 25.7778Z" fill="#737373"/>
  </g>
  <defs>
    <clipPath id="clip0_1_342">
      <rect width="32" height="32" fill="white"/>
    </clipPath>
  </defs>
</svg>