<svg width="189.1109375px" height="121.39999999999999px" xmlns="http://www.w3.org/2000/svg" viewBox="155.44453125 14.300000000000004 189.1109375 121.39999999999999" style="background: rgba(0, 0, 0, 0);" preserveAspectRatio="xMidYMid"><defs><filter id="editing-extrusion" x="-100%" y="-100%" width="300%" height="300%"><feFlood result="color1" flood-color="#444"></feFlood><feConvolveMatrix order="8,8" divisor="1" kernelMatrix="1 0 0 0 0 0 0 0 0 1 0 0 0 0 0 0 0 0 1 0 0 0 0 0 0 0 0 1 0 0 0 0 0 0 0 0 1 0 0 0 0 0 0 0 0 1 0 0 0 0 0 0 0 0 1 0 0 0 0 0 0 0 0 1" in="SourceAlpha" result="extrude"></feConvolveMatrix><feComposite in="color1" in2="extrude" result="comp-extrude" operator="in"></feComposite><feOffset dx="4" dy="4" in="comp-extrude" result="offset-extrude"></feOffset><feMerge><feMergeNode in="offset-extrude"></feMergeNode><feMergeNode in="SourceGraphic"></feMergeNode></feMerge></filter></defs><g filter="url(#editing-extrusion)"><g transform="translate(189.77027702331543, 97.43000030517578)"><path d="M29.18 1.28L29.18 1.28L29.18 1.28Q20.99 1.28 20.22-10.37L20.22-10.37L9.22-10.37L9.22-10.37Q7.94-7.42 7.04-4.86L7.04-4.86L5.38 0L-3.58 0L16.58-42.24L30.34-42.24L33.02-11.14L33.02-11.14Q33.66-4.42 36.22-2.43L36.22-2.43L36.22-2.43Q34.37 1.28 29.18 1.28ZM14.72-23.17L11.20-15.04L20.03-15.04L19.26-31.49L19.26-33.22L14.72-23.17ZM52.99 0L39.36 0L46.66-38.91L47.36-42.24L61.06-42.24L52.99 0ZM78.98-3.78L78.98-3.78L78.98-3.78Q77.25 1.28 70.59 1.28L70.59 1.28L70.59 1.28Q65.66 1.28 62.27-4.61L62.27-4.61L62.27-4.61Q58.82-10.50 58.18-20.10L58.18-20.10L58.18-20.10Q65.22-32.96 70.08-38.27L70.08-38.27L70.08-38.27Q74.75-43.33 79.62-43.33L79.62-43.33L79.62-43.33Q82.24-43.33 84.13-41.92L84.13-41.92L84.13-41.92Q86.02-40.51 86.46-38.27L86.46-38.27L86.46-38.27Q84.29-37.38 83.26-36.67L83.26-36.67L83.26-36.67Q80.70-34.75 77.25-30.46L77.25-30.46L71.42-23.49L71.42-23.49Q70.02-21.82 69.44-21.06L69.44-21.06L69.44-21.06Q70.40-15.68 73.28-10.37L73.28-10.37L73.28-10.37Q76.03-5.31 78.98-3.78ZM82.69-3.78L82.69-3.78L82.69-3.78Q82.69-6.21 84.51-7.52L84.51-7.52L84.51-7.52Q86.34-8.83 89.02-8.83L89.02-8.83L89.02-8.83Q91.71-8.83 93.41-7.52L93.41-7.52L93.41-7.52Q95.10-6.21 95.10-3.78L95.10-3.78L95.10-3.78Q95.10-1.34 93.22 0L93.22 0L93.22 0Q91.33 1.34 88.64 1.34L88.64 1.34L88.64 1.34Q85.95 1.34 84.32 0L84.32 0L84.32 0Q82.69-1.34 82.69-3.78ZM86.14-15.81L86.14-15.81L86.14-15.81Q86.14-16.26 86.27-16.90L86.27-16.90L91.26-42.62L91.26-42.62Q93.63-43.52 96.45-43.52L96.45-43.52L96.45-43.52Q99.26-43.52 100.74-41.73L100.74-41.73L100.74-41.73Q102.21-39.94 102.21-37.28L102.21-37.28L102.21-37.28Q102.21-34.62 101.18-31.65L101.18-31.65L101.18-31.65Q100.16-28.67 98.91-25.66L98.91-25.66L98.91-25.66Q97.66-22.66 96.61-19.55L96.61-19.55L96.61-19.55Q95.55-16.45 95.49-13.18L95.49-13.18L95.49-13.18Q94.02-11.52 91.46-11.52L91.46-11.52L91.46-11.52Q88.90-11.52 87.52-12.70L87.52-12.70L87.52-12.70Q86.14-13.89 86.14-15.81ZM101.25-3.78L101.25-3.78L101.25-3.78Q101.25-6.21 103.07-7.52L103.07-7.52L103.07-7.52Q104.90-8.83 107.58-8.83L107.58-8.83L107.58-8.83Q110.27-8.83 111.97-7.52L111.97-7.52L111.97-7.52Q113.66-6.21 113.66-3.78L113.66-3.78L113.66-3.78Q113.66-1.34 111.78 0L111.78 0L111.78 0Q109.89 1.34 107.20 1.34L107.20 1.34L107.20 1.34Q104.51 1.34 102.88 0L102.88 0L102.88 0Q101.25-1.34 101.25-3.78ZM104.70-15.81L104.70-15.81L104.70-15.81Q104.70-16.26 104.83-16.90L104.83-16.90L109.82-42.62L109.82-42.62Q112.19-43.52 115.01-43.52L115.01-43.52L115.01-43.52Q117.82-43.52 119.30-41.73L119.30-41.73L119.30-41.73Q120.77-39.94 120.77-37.28L120.77-37.28L120.77-37.28Q120.77-34.62 119.74-31.65L119.74-31.65L119.74-31.65Q118.72-28.67 117.47-25.66L117.47-25.66L117.47-25.66Q116.22-22.66 115.17-19.55L115.17-19.55L115.17-19.55Q114.11-16.45 114.05-13.18L114.05-13.18L114.05-13.18Q112.58-11.52 110.02-11.52L110.02-11.52L110.02-11.52Q107.46-11.52 106.08-12.70L106.08-12.70L106.08-12.70Q104.70-13.89 104.70-15.81Z" fill="#ccc"></path></g></g><style>text {
  font-size: 64px;
  font-family: Arial Black;
  dominant-baseline: central;
  text-anchor: middle;
}</style></svg>