<svg width="90" height="34" viewBox="0 0 90 34" fill="none" xmlns="http://www.w3.org/2000/svg">
<path d="M26.8615 30.8625C23.1293 30.8625 21.0877 28.2655 20.7369 23.0716H13.2178C12.6345 24.3868 12.1377 25.615 11.7276 26.7564L10.5929 30.0065H4.46826L18.2487 1.75858H27.6544L29.4864 22.5566C29.778 25.5526 30.5071 27.4942 31.6737 28.3814C30.8307 30.0354 29.2266 30.8625 26.8615 30.8625ZM16.9773 14.5116L14.5712 19.9485H20.607L20.0806 8.94762V7.79068L16.9773 14.5116ZM43.1369 30.0065H33.8201L38.81 3.98551L39.2885 1.75858H48.6532L43.1369 30.0065ZM60.9025 27.4786C60.1142 29.7345 58.2025 30.8625 55.1675 30.8625C52.9209 30.8625 51.0252 29.5495 49.4803 26.9235C47.9081 24.2976 46.9762 20.8446 46.6846 16.5646C49.8927 10.8313 52.6042 6.78088 54.8189 4.41351C56.947 2.1576 59.1207 1.02965 61.34 1.02965C62.5339 1.02965 63.5615 1.34396 64.4228 1.97258C65.2841 2.60121 65.815 3.41485 66.0155 4.41351C65.0266 4.8103 64.2975 5.16697 63.8281 5.48351C62.6615 6.3395 61.2921 7.72381 59.72 9.63643L55.7348 14.2976C55.0969 15.0421 54.6457 15.5838 54.3814 15.9227C54.8189 18.3212 55.6938 20.7042 57.0063 23.0716C58.2594 25.3275 59.5582 26.7965 60.9025 27.4786ZM63.4385 27.4786C63.4385 26.3952 63.8532 25.5615 64.6826 24.9775C65.5165 24.3934 66.5441 24.1014 67.7654 24.1014C68.9912 24.1014 69.9915 24.3934 70.7662 24.9775C71.5364 25.5615 71.9214 26.3952 71.9214 27.4786C71.9214 28.5664 71.4931 29.4091 70.6363 30.0065C69.7751 30.6039 68.7315 30.9026 67.5057 30.9026C66.2798 30.9026 65.2955 30.6039 64.5527 30.0065C63.8099 29.4091 63.4385 28.5664 63.4385 27.4786ZM65.7968 19.4336C65.7968 19.2329 65.8264 18.99 65.8856 18.7046L69.2966 1.50446C70.3766 1.10321 71.5591 0.902588 72.8442 0.902588C74.1247 0.902588 75.1022 1.30161 75.7767 2.09965C76.4465 2.89768 76.7815 3.88966 76.7815 5.07557C76.7815 6.26148 76.5468 7.5165 76.0774 8.84062C75.6126 10.1692 75.0954 11.5045 74.5258 12.8464C73.9561 14.1839 73.4321 15.5459 72.9536 16.9325C72.4705 18.3145 72.2153 19.7345 72.188 21.1924C71.5181 21.9325 70.5999 22.3025 69.4333 22.3025C68.2667 22.3025 67.3689 22.0395 66.7401 21.5134C66.1112 20.9828 65.7968 20.2896 65.7968 19.4336ZM76.1253 27.4786C76.1253 26.3952 76.54 25.5615 77.3693 24.9775C78.2033 24.3934 79.2309 24.1014 80.4522 24.1014C81.678 24.1014 82.6783 24.3934 83.453 24.9775C84.2231 25.5615 84.6082 26.3952 84.6082 27.4786C84.6082 28.5664 84.1798 29.4091 83.3231 30.0065C82.4618 30.6039 81.4183 30.9026 80.1924 30.9026C78.9666 30.9026 77.9823 30.6039 77.2395 30.0065C76.4967 29.4091 76.1253 28.5664 76.1253 27.4786ZM78.4835 19.4336C78.4835 19.2329 78.5132 18.99 78.5724 18.7046L81.9833 1.50446C83.0634 1.10321 84.2459 0.902588 85.531 0.902588C86.8115 0.902588 87.789 1.30161 88.4634 2.09965C89.1333 2.89768 89.4683 3.88966 89.4683 5.07557C89.4683 6.26148 89.2336 7.5165 88.7642 8.84062C88.2994 10.1692 87.7822 11.5045 87.2125 12.8464C86.6429 14.1839 86.1188 15.5459 85.6404 16.9325C85.1573 18.3145 84.9021 19.7345 84.8748 21.1924C84.2049 21.9325 83.2866 22.3025 82.12 22.3025C80.9534 22.3025 80.0557 22.0395 79.4268 21.5134C78.798 20.9828 78.4835 20.2896 78.4835 19.4336Z" fill="#CCCCCC"/>
<path d="M22.6615 33.0574C18.9732 33.0574 16.9557 30.4604 16.6089 25.2665H9.1783C8.60186 26.5817 8.11099 27.81 7.70568 28.9513L6.58433 32.2014H0.531738L14.1501 3.95353H23.4451L25.2555 24.7516C25.5437 27.7476 26.2643 29.6892 27.4171 30.5764C26.584 32.2304 24.9988 33.0574 22.6615 33.0574ZM12.8936 16.7065L10.5158 22.1435H16.4806L15.9604 11.1426V9.98563L12.8936 16.7065ZM38.7455 32.2014H29.5383L34.4695 6.18046L34.9424 3.95353H44.1969L38.7455 32.2014ZM56.3021 29.6735C55.523 31.9295 53.6338 33.0574 50.6345 33.0574C48.4143 33.0574 46.5409 31.7444 45.0142 29.1185C43.4606 26.4925 42.5396 23.0396 42.2514 18.7596C45.4218 13.0262 48.1013 8.97582 50.29 6.60846C52.3931 4.35255 54.5412 3.2246 56.7344 3.2246C57.9143 3.2246 58.9298 3.53891 59.781 4.16753C60.6321 4.79615 61.1567 5.60979 61.3549 6.60846C60.3777 7.00525 59.6571 7.36191 59.1933 7.67845C58.0404 8.53445 56.6871 9.91876 55.1334 11.8314L51.1952 16.4925C50.5647 17.2371 50.1189 17.7788 49.8577 18.1176C50.29 20.5162 51.1547 22.8991 52.4516 25.2665C53.6901 27.5224 54.9736 28.9914 56.3021 29.6735ZM58.8082 29.6735C58.8082 28.5902 59.218 27.7565 60.0377 27.1724C60.8618 26.5884 61.8773 26.2964 63.0842 26.2964C64.2956 26.2964 65.2841 26.5884 66.0497 27.1724C66.8108 27.7565 67.1913 28.5902 67.1913 29.6735C67.1913 30.7614 66.768 31.604 65.9214 32.2014C65.0702 32.7988 64.0389 33.0975 62.8275 33.0975C61.6161 33.0975 60.6434 32.7988 59.9093 32.2014C59.1752 31.604 58.8082 30.7614 58.8082 29.6735ZM61.1387 21.6285C61.1387 21.4279 61.168 21.1849 61.2266 20.8996L64.5974 3.69941C65.6647 3.29816 66.8333 3.09753 68.1033 3.09753C69.3687 3.09753 70.3347 3.49655 71.0012 4.29459C71.6632 5.09263 71.9942 6.08461 71.9942 7.27052C71.9942 8.45643 71.7623 9.71144 71.2984 11.0356C70.8391 12.3641 70.328 13.6994 69.765 15.0414C69.2021 16.3789 68.6842 17.7409 68.2114 19.1274C67.734 20.5095 67.4818 21.9295 67.4548 23.3873C66.7928 24.1274 65.8853 24.4974 64.7325 24.4974C63.5796 24.4974 62.6924 24.2344 62.0709 23.7083C61.4495 23.1778 61.1387 22.4845 61.1387 21.6285ZM71.3457 29.6735C71.3457 28.5902 71.7555 27.7565 72.5752 27.1724C73.3993 26.5884 74.4148 26.2964 75.6217 26.2964C76.8331 26.2964 77.8216 26.5884 78.5872 27.1724C79.3483 27.7565 79.7288 28.5902 79.7288 29.6735C79.7288 30.7614 79.3055 31.604 78.4589 32.2014C77.6077 32.7988 76.5765 33.0975 75.365 33.0975C74.1536 33.0975 73.1809 32.7988 72.4468 32.2014C71.7128 31.604 71.3457 30.7614 71.3457 29.6735ZM73.6762 21.6285C73.6762 21.4279 73.7055 21.1849 73.7641 20.8996L77.1349 3.69941C78.2022 3.29816 79.3708 3.09753 80.6408 3.09753C81.9062 3.09753 82.8722 3.49655 83.5387 4.29459C84.2007 5.09263 84.5317 6.08461 84.5317 7.27052C84.5317 8.45643 84.2998 9.71144 83.836 11.0356C83.3766 12.3641 82.8655 13.6994 82.3025 15.0414C81.7396 16.3789 81.2217 17.7409 80.7489 19.1274C80.2715 20.5095 80.0193 21.9295 79.9923 23.3873C79.3303 24.1274 78.4229 24.4974 77.27 24.4974C76.1171 24.4974 75.2299 24.2344 74.6085 23.7083C73.987 23.1778 73.6762 22.4845 73.6762 21.6285Z" fill="#434343"/>
</svg>
