<svg width="100" height="100" viewBox="0 0 100 100" fill="none" xmlns="http://www.w3.org/2000/svg">
<path d="M79.1667 16.6667H75V8.33333H66.6667V16.6667H33.3333V8.33333H25V16.6667H20.8333C16.25 16.6667 12.5 20.4167 12.5 25V83.3333C12.5 87.9167 16.25 91.6667 20.8333 91.6667H79.1667C83.75 91.6667 87.5 87.9167 87.5 83.3333V25C87.5 20.4167 83.75 16.6667 79.1667 16.6667ZM79.1667 83.3333H20.8333V41.6667H79.1667V83.3333ZM20.8333 33.3333V25H79.1667V33.3333H20.8333ZM29.1667 50H70.8333V58.3333H29.1667V50ZM29.1667 66.6667H58.3333V75H29.1667V66.6667Z" fill="black"/>
</svg>
